<svg width="16" height="16" viewBox="0 0 16 16" fill="none" xmlns="http://www.w3.org/2000/svg">
<path d="M8.17556 9.13183L11.8326 5.47483C11.8991 5.40174 11.9797 5.34275 12.0694 5.30134C12.1592 5.25994 12.2563 5.23697 12.3551 5.23378C12.4539 5.2306 12.5524 5.24727 12.6446 5.2828C12.7369 5.31834 12.821 5.37202 12.8922 5.44067C12.9633 5.50932 13.0199 5.59155 13.0587 5.68247C13.0975 5.7734 13.1176 5.87118 13.1179 5.97003C13.1183 6.06888 13.0987 6.16679 13.0605 6.25797C13.0223 6.34914 12.9662 6.43172 12.8956 6.50083L12.8776 6.51883L8.69856 10.6988C8.55997 10.8374 8.37203 10.9152 8.17606 10.9152C7.98009 10.9152 7.79214 10.8374 7.65356 10.6988L3.47456 6.51983C3.40476 6.45239 3.34893 6.37187 3.31025 6.28286C3.27157 6.19385 3.2508 6.09809 3.24913 6.00105C3.24746 5.90402 3.26492 5.8076 3.30051 5.71731C3.3361 5.62702 3.38913 5.54462 3.45656 5.47483C3.52399 5.40503 3.60451 5.3492 3.69353 5.31052C3.78254 5.27184 3.87829 5.25107 3.97533 5.2494C4.07237 5.24773 4.16879 5.26519 4.25908 5.30078C4.34937 5.33637 4.43176 5.38939 4.50156 5.45683L4.51956 5.47483L8.17556 9.13183Z" fill="#6F1DF4"/>
</svg>
