<svg width="11" height="8" viewBox="0 0 11 8" fill="none" xmlns="http://www.w3.org/2000/svg">
<path d="M5.17556 5.13183L8.83256 1.47483C8.89912 1.40174 8.97966 1.34275 9.06942 1.30134C9.15919 1.25994 9.25634 1.23697 9.35514 1.23378C9.45395 1.2306 9.55238 1.24727 9.64462 1.2828C9.73687 1.31834 9.82104 1.37202 9.89217 1.44067C9.96329 1.50932 10.0199 1.59155 10.0587 1.68247C10.0975 1.7734 10.1176 1.87118 10.1179 1.97003C10.1183 2.06888 10.0987 2.16679 10.0605 2.25797C10.0223 2.34914 9.96624 2.43172 9.89556 2.50083L9.87756 2.51883L5.69856 6.69883C5.55997 6.83738 5.37203 6.91522 5.17606 6.91522C4.98009 6.91522 4.79214 6.83738 4.65356 6.69883L0.47456 2.51983C0.404762 2.45239 0.34893 2.37187 0.310251 2.28286C0.271572 2.19385 0.250805 2.09809 0.249133 2.00105C0.247462 1.90402 0.264919 1.8076 0.30051 1.71731C0.3361 1.62702 0.389126 1.54462 0.45656 1.47483C0.523993 1.40503 0.604515 1.3492 0.693526 1.31052C0.782537 1.27184 0.878294 1.25107 0.975332 1.2494C1.07237 1.24773 1.16879 1.26519 1.25908 1.30078C1.34937 1.33637 1.43176 1.38939 1.50156 1.45683L1.51956 1.47483L5.17556 5.13183Z" fill="#6F1DF4" stroke="#6F1DF4" stroke-width="0.5"/>
</svg>
